<mxfile host="app.diagrams.net" agent="Mozilla/5.0 (Macintosh; Intel Mac OS X 10_15_7) AppleWebKit/537.36 (KHTML, like Gecko) Chrome/138.0.0.0 Safari/537.36" version="28.1.0" pages="2">
  <diagram name="Page-1" id="m51fYMiA5aYyBzBPCD1t">
    <mxGraphModel dx="898" dy="586" grid="1" gridSize="10" guides="1" tooltips="1" connect="1" arrows="1" fold="1" page="1" pageScale="1" pageWidth="827" pageHeight="1169" math="0" shadow="0">
      <root>
        <mxCell id="0" />
        <mxCell id="1" parent="0" />
        <mxCell id="h3g8XTt_zs3Af2P0mAGX-1" value="Alarm" style="rounded=0;whiteSpace=wrap;html=1;" vertex="1" parent="1">
          <mxGeometry x="160" y="130" width="120" height="60" as="geometry" />
        </mxCell>
        <mxCell id="h3g8XTt_zs3Af2P0mAGX-2" value="Functionalities&lt;div&gt;* Alarm setup manually&lt;/div&gt;&lt;div&gt;* Alarm with voice set up&lt;/div&gt;&lt;div&gt;* Alarm tune&lt;/div&gt;&lt;div&gt;* Alarm volume&lt;/div&gt;&lt;div&gt;* Devices for alarm&lt;/div&gt;" style="rounded=0;whiteSpace=wrap;html=1;" vertex="1" parent="1">
          <mxGeometry x="354" y="130" width="426" height="250" as="geometry" />
        </mxCell>
      </root>
    </mxGraphModel>
  </diagram>
  <diagram id="7CFf8cwZJ0BgomwdDNDw" name="Page-2">
    <mxGraphModel dx="898" dy="586" grid="1" gridSize="10" guides="1" tooltips="1" connect="1" arrows="1" fold="1" page="1" pageScale="1" pageWidth="827" pageHeight="1169" math="0" shadow="0">
      <root>
        <mxCell id="0" />
        <mxCell id="1" parent="0" />
        <mxCell id="nMkKwU9-hHfUjXtCo9o3-1" value="URL Shortener" style="rounded=0;whiteSpace=wrap;html=1;" vertex="1" parent="1">
          <mxGeometry x="180" y="140" width="120" height="60" as="geometry" />
        </mxCell>
        <mxCell id="nMkKwU9-hHfUjXtCo9o3-2" value="&lt;div&gt;Functionalities&lt;/div&gt;1. Shorten url using base62 method&lt;div&gt;2.&amp;nbsp;&lt;/div&gt;" style="rounded=0;whiteSpace=wrap;html=1;align=left;" vertex="1" parent="1">
          <mxGeometry x="440" y="160" width="330" height="110" as="geometry" />
        </mxCell>
      </root>
    </mxGraphModel>
  </diagram>
</mxfile>
